<svg width="441" height="121" viewBox="0 0 441 121" fill="none" xmlns="http://www.w3.org/2000/svg">
<rect x="373" width="2" height="120" fill="white"/>
<path d="M0 48C0 21.4903 21.4903 0 48 0H374V120H48C21.4903 120 0 98.5097 0 72V48Z" fill="white"/>
<path d="M374 0L408.602 0C430.444 0 445.867 21.3983 438.96 42.1193L420.294 98.1193C415.938 111.186 403.709 120 389.936 120H374V0Z" fill="white"/>
<path d="M126.584 51.5533V48.8867C126.584 45.6184 125.938 42.3819 124.683 39.3622C123.428 36.3425 121.588 33.5988 119.268 31.2877C116.949 28.9766 114.194 27.1435 111.163 25.8931C108.132 24.6426 104.884 23.9993 101.603 24H56.9809C50.3579 24.0074 44.0082 26.6318 39.325 31.2974C34.6418 35.9629 32.0075 42.2886 32 48.8867V71.1132C32.0075 77.7114 34.6418 84.0369 39.325 88.7025C44.0082 93.3681 50.3579 95.9925 56.9809 96H101.596C108.222 95.9997 114.576 93.3777 119.262 88.7109C123.948 84.0441 126.581 77.7141 126.584 71.1132V68.4465H87.7637V71.1132C87.7695 74.2797 87.0001 77.3997 85.5221 80.2029C84.0444 83.0061 81.9027 85.4082 79.2828 87.2007C78.3096 86.5299 77.3989 85.7736 76.5612 84.9414L76.5603 84.9399C73.1195 81.5313 71.0793 76.9662 70.8393 72.138C73.7982 68.7816 75.4304 64.4673 75.4304 60.0003C75.4304 55.5333 73.7988 51.2189 70.8399 47.8625C70.9971 44.8755 71.84 41.9643 73.3035 39.3528C74.7673 36.7412 76.8129 34.499 79.2831 32.7987C81.903 34.5918 84.0453 36.9938 85.5239 39.7969C87.0028 42.6001 87.7737 45.7199 87.7704 48.8866V51.5532L126.584 51.5533ZM85.8015 88.7121C89.8467 84.7053 92.3808 79.4316 92.9764 73.7799H121.05C120.4 78.4599 118.072 82.7475 114.496 85.8513C110.921 88.9551 106.338 90.6654 101.596 90.6666H83.5948C84.3684 90.0591 85.1053 89.4063 85.8015 88.7121ZM66.9525 51.552C68.9686 53.9074 70.0762 56.9013 70.0771 59.997C70.0777 63.0924 68.9713 66.087 66.9561 68.4432H37.3535V51.552H66.9525ZM72.7753 88.7121C73.1463 89.0817 73.5299 89.4402 73.9256 89.7876C73.7775 89.8332 73.6296 89.88 73.4802 89.922C73.3119 89.9697 73.143 90.015 72.9737 90.0579C72.7033 90.1263 72.4317 90.1905 72.1586 90.2472C71.9833 90.2835 71.8068 90.3153 71.6304 90.3468C71.3684 90.3939 71.1064 90.4398 70.8426 90.4764C70.6146 90.5073 70.3852 90.5295 70.1554 90.5529C69.9404 90.5751 69.7257 90.6012 69.5098 90.6162C69.0547 90.6471 68.5973 90.6666 68.1363 90.6666H56.981C52.2408 90.6603 47.6626 88.9473 44.0901 85.8435C40.5176 82.7397 38.1915 78.4542 37.5404 73.7766H65.604C66.1979 79.4289 68.7307 84.7041 72.7753 88.7121ZM65.6031 46.2187H37.5409C38.193 41.5421 40.5195 37.2577 44.0918 34.1549C47.6641 31.052 52.2415 29.3397 56.9809 29.3333H68.1363C68.5964 29.3333 69.0532 29.3527 69.5073 29.3834C69.7296 29.3989 69.9506 29.4257 70.172 29.4489C70.3936 29.4713 70.6158 29.4926 70.8357 29.5226C71.11 29.5605 71.3825 29.608 71.6544 29.6575C71.8171 29.6868 71.98 29.7156 72.1417 29.7491C72.4302 29.8089 72.7166 29.8764 73.002 29.9492C73.1505 29.9869 73.2987 30.0266 73.4462 30.0681C73.6058 30.1127 73.7633 30.1632 73.9217 30.2119C69.2375 34.3238 66.2698 40.0347 65.6031 46.2187ZM85.8024 31.2877C85.1062 30.5936 84.3693 29.941 83.596 29.3333H101.603C106.345 29.3327 110.927 31.0425 114.502 34.1468C118.077 37.2511 120.403 41.5397 121.05 46.22H92.983C92.3874 40.5671 89.8509 35.2925 85.8024 31.2877V31.2877Z" fill="url(#paint0_linear_2481_5280)"/>
<path d="M192.42 96.0771C187.522 96.1207 182.666 95.1735 178.146 93.2925C173.886 91.5438 170.022 88.9621 166.781 85.6995C163.541 82.437 160.99 78.5602 159.28 74.2983C157.467 69.8454 156.552 65.0808 156.585 60.2761V60.0771C156.548 55.2879 157.464 50.5394 159.28 46.1047C161.018 41.8508 163.56 37.9685 166.766 34.6681C170.03 31.3398 173.935 28.7016 178.246 26.9114C182.927 24.9785 187.953 24.0142 193.019 24.0771C196.016 24.0534 199.009 24.32 201.954 24.873C204.468 25.3499 206.927 26.083 209.291 27.0606C211.438 27.963 213.48 29.0969 215.38 30.442C217.228 31.7558 218.964 33.2191 220.571 34.8173L210.788 46.0549C208.288 43.7608 205.484 41.82 202.453 40.2869C199.481 38.8631 196.217 38.1481 192.919 38.1987C190.117 38.1729 187.342 38.7494 184.784 39.889C182.334 40.9833 180.142 42.5756 178.346 44.5637C176.528 46.5868 175.106 48.9308 174.153 51.4748C173.143 54.1614 172.636 57.0093 172.656 59.8782V60.0771C172.638 62.9616 173.146 65.8257 174.153 68.5303C175.093 71.0844 176.497 73.4442 178.296 75.4911C180.124 77.5518 182.377 79.1962 184.9 80.3116C187.424 81.4272 190.159 81.9879 192.92 81.9556C196.426 82.0642 199.906 81.313 203.052 79.768C206.045 78.1432 208.813 76.1371 211.287 73.8009L221.07 83.6457C219.34 85.5072 217.471 87.2359 215.48 88.8168C213.522 90.3595 211.395 91.677 209.141 92.7457C206.739 93.8748 204.208 94.7094 201.604 95.2314C198.579 95.8227 195.502 96.1059 192.42 96.0771Z" fill="#140F37"/>
<path d="M230.852 25.2705H246.224V52.8174H274.574V25.2705H289.947V94.883H274.574V66.938H246.224V94.883H230.852V25.2705Z" fill="#140F37"/>
<path d="M304.92 25.2705H320.293V94.883H304.92V25.2705Z" fill="#140F37"/>
<path d="M335.268 25.2707H363.815C367.631 25.2112 371.428 25.7996 375.045 27.0107C378.149 28.06 381.004 29.7357 383.431 31.9331C385.726 34.0571 387.533 36.6532 388.722 39.5416C389.984 42.6521 390.61 45.9819 390.568 49.3367V49.5357C390.647 53.2019 389.897 56.8389 388.373 60.1764C386.967 63.1516 384.901 65.7696 382.332 67.8336C379.67 69.9423 376.617 71.5129 373.349 72.4576C369.769 73.5079 366.05 74.0275 362.319 73.9995H350.638V94.8831H335.268V25.2707ZM362.819 60.3753C366.676 60.3753 369.672 59.3643 371.801 57.342C372.837 56.3859 373.656 55.2228 374.205 53.9287C374.756 52.6347 375.027 51.2392 374.996 49.8341V49.6351C375.093 48.1566 374.84 46.6761 374.259 45.312C373.678 43.9478 372.786 42.7379 371.651 41.7789C369.01 39.86 365.782 38.9113 362.517 39.0939H350.638V60.3753H362.819Z" fill="#140F37"/>
<path d="M406.794 36.8616C405.345 38.2872 403.58 39 401.5 39C399.42 39 397.645 38.2872 396.174 36.8616C394.725 35.4359 394 33.6488 394 31.5C394 29.3719 394.725 27.595 396.174 26.1694C397.645 24.7231 399.42 24 401.5 24C403.58 24 405.345 24.7231 406.794 26.1694C408.265 27.595 409 29.3719 409 31.5C409 33.6488 408.265 35.4359 406.794 36.8616ZM397.025 36.1178C398.202 37.3161 399.693 37.9153 401.5 37.9153C403.307 37.9153 404.788 37.3161 405.943 36.1178C407.12 34.8988 407.708 33.3595 407.708 31.5C407.708 29.6612 407.12 28.1322 405.943 26.9132C404.767 25.6942 403.286 25.0847 401.5 25.0847C399.714 25.0847 398.233 25.6942 397.057 26.9132C395.88 28.1322 395.292 29.6612 395.292 31.5C395.292 33.3595 395.87 34.8988 397.025 36.1178ZM398.569 35.374V27.4401H402.288C403.023 27.4401 403.632 27.657 404.116 28.0909C404.599 28.5041 404.84 29.031 404.84 29.6715C404.84 30.6839 404.336 31.314 403.328 31.562V31.593C404.084 31.7996 404.504 32.3368 404.588 33.2045C404.609 33.3905 404.63 33.5971 404.651 33.8244C404.672 34.0517 404.683 34.2376 404.683 34.3822C404.704 34.5269 404.714 34.6715 404.714 34.8161C404.735 34.9607 404.756 35.0744 404.777 35.157C404.819 35.219 404.872 35.2603 404.935 35.281V35.374H403.391C403.202 35.2913 403.086 34.6818 403.044 33.5455C403.002 32.6364 402.487 32.1818 401.5 32.1818H400.176V35.374H398.569ZM400.176 28.7417V30.9731H401.941C402.824 30.9731 403.265 30.6012 403.265 29.8574C403.265 29.1136 402.824 28.7417 401.941 28.7417H400.176Z" fill="#140F37"/>
<defs>
<linearGradient id="paint0_linear_2481_5280" x1="69.2712" y1="69.9887" x2="115.883" y2="23.2005" gradientUnits="userSpaceOnUse">
<stop stop-color="#5147DD"/>
<stop offset="1" stop-color="#DD80DD"/>
</linearGradient>
</defs>
</svg>
