<svg width="769" height="100" viewBox="0 0 769 100" fill="none" xmlns="http://www.w3.org/2000/svg">
<path d="M0 32.6531C0 14.6193 14.6193 0 32.6531 0H700.633V100H32.6531C14.6193 100 0 85.3807 0 67.3469V32.6531Z" fill="white"/>
<path d="M0 32.6531C0 14.6193 14.6193 0 32.6531 0H700.633V100H32.6531C14.6193 100 0 85.3807 0 67.3469V32.6531Z" fill="url(#paint0_linear_2716_18772)"/>
<path d="M700.633 0L732.649 0C755.848 0 771.648 23.5139 762.881 44.9925L748.72 79.6864C743.706 91.971 731.757 100 718.488 100H700.633V0Z" fill="url(#paint1_linear_2716_18772)"/>
<path d="M70.1998 46.9571C70.1998 53.9 64.7998 57.5 58.0712 57.5H53.0569V66.5H46.4569V36.5H58.7141C65.8712 36.5 70.1998 40.7429 70.1998 46.8714V46.9571ZM63.5141 47.0857V47C63.5141 44.0429 61.4569 42.4571 58.1569 42.4571H53.0569V51.6286H58.2855C61.5855 51.6286 63.5141 49.6571 63.5141 47.0857ZM114.213 51.5C114.213 60.0286 107.484 67.0143 98.227 67.0143C88.9699 67.0143 82.327 60.1143 82.327 51.5857V51.5C82.327 42.9714 89.0556 35.9857 98.3127 35.9857C107.57 35.9857 114.213 42.8857 114.213 51.4143V51.5ZM107.313 51.5857V51.5C107.313 46.3571 103.541 42.0714 98.227 42.0714C92.9127 42.0714 89.227 46.2714 89.227 51.4143V51.5C89.227 56.6429 92.9984 60.9286 98.3127 60.9286C103.627 60.9286 107.313 56.7286 107.313 51.5857ZM170.123 36.5L159.88 66.7143H154.137L147.366 47.0857L140.594 66.7143H134.851L124.609 36.5H131.68L137.894 56.8143L144.623 36.4143H150.28L157.009 56.8143L163.223 36.5H170.123ZM206.426 66.5H183.583V36.5H206.212V42.3714H190.14V48.4571H204.283V54.3286H190.14V60.6286H206.426V66.5ZM246.794 66.5H239.08L232.651 56.9H227.465V66.5H220.865V36.5H234.58C241.651 36.5 245.894 40.2286 245.894 46.4V46.4857C245.894 51.3286 243.28 54.3714 239.465 55.7857L246.794 66.5ZM239.208 46.8286V46.7429C239.208 43.9143 237.237 42.4571 234.023 42.4571H227.465V51.0714H234.151C237.365 51.0714 239.208 49.3571 239.208 46.8286ZM283.251 66.5H260.408V36.5H283.036V42.3714H266.965V48.4571H281.108V54.3286H266.965V60.6286H283.251V66.5ZM325.333 51.5C325.333 59.9429 318.819 66.5 309.39 66.5H297.69V36.5H309.39C318.819 36.5 325.333 42.9714 325.333 51.4143V51.5ZM318.433 51.5857V51.5C318.433 46.1857 314.79 42.4571 309.39 42.4571H304.29V60.5429H309.39C314.79 60.5429 318.433 56.9 318.433 51.5857ZM386.706 58.2714C386.706 63.7571 382.249 66.5 375.477 66.5H361.206V36.5H375.134C381.263 36.5 385.034 39.5429 385.034 44.2571V44.3429C385.034 47.7286 383.234 49.6143 381.091 50.8143C384.563 52.1429 386.706 54.1571 386.706 58.1857V58.2714ZM378.477 45.4571V45.3714C378.477 43.4 376.934 42.2857 374.149 42.2857H367.634V48.6286H373.72C376.634 48.6286 378.477 47.6857 378.477 45.4571ZM380.149 57.4571V57.3714C380.149 55.3571 378.649 54.1143 375.263 54.1143H367.634V60.7143H375.477C378.391 60.7143 380.149 59.6857 380.149 57.4571ZM425.98 36.5L414.452 54.5429V66.5H407.852V54.6714L396.323 36.5H404.037L411.195 48.5429L418.48 36.5H425.98Z" fill="white"/>
<path d="M526.332 43.9563V42.0724C526.332 39.7633 525.876 37.4768 524.989 35.3434C524.103 33.2101 522.803 31.2716 521.164 29.6389C519.525 28.0061 517.579 26.7111 515.438 25.8277C513.296 24.9442 511.001 24.4898 508.683 24.4902H477.159C472.479 24.4955 467.993 26.3496 464.685 29.6457C461.376 32.9419 459.515 37.4109 459.51 42.0724V57.7751C459.515 62.4367 461.376 66.9056 464.685 70.2018C467.993 73.4979 472.479 75.3521 477.159 75.3574H508.678C513.359 75.3571 517.849 73.5047 521.159 70.2077C524.47 66.9107 526.33 62.4386 526.332 57.7751V55.8911H498.906V57.7751C498.91 60.0122 498.367 62.2165 497.322 64.1969C496.279 66.1773 494.765 67.8744 492.915 69.1408C492.227 68.6668 491.584 68.1325 490.992 67.5446L490.991 67.5435C488.56 65.1354 487.119 61.9102 486.949 58.4991C489.04 56.1279 490.193 53.0799 490.193 49.924C490.193 46.7681 489.04 43.72 486.95 41.3488C487.061 39.2385 487.656 37.1818 488.69 35.3368C489.724 33.4918 491.17 31.9077 492.915 30.7064C494.766 31.9732 496.279 33.6702 497.324 35.6506C498.369 37.6309 498.913 39.8351 498.911 42.0723V43.9563L526.332 43.9563ZM497.52 70.2085C500.378 67.3778 502.168 63.652 502.589 59.6591H522.423C521.963 62.9655 520.319 65.9946 517.792 68.1874C515.266 70.3802 512.029 71.5885 508.678 71.5894H495.961C496.507 71.1602 497.028 70.699 497.52 70.2085ZM484.203 43.9554C485.628 45.6195 486.41 47.7346 486.411 49.9217C486.411 52.1085 485.63 54.2242 484.206 55.8888H463.292V43.9554H484.203ZM488.317 70.2085C488.579 70.4697 488.85 70.7229 489.13 70.9684C489.025 71.0006 488.921 71.0337 488.815 71.0633C488.696 71.097 488.577 71.129 488.457 71.1593C488.266 71.2077 488.074 71.253 487.881 71.2931C487.757 71.3187 487.633 71.3412 487.508 71.3634C487.323 71.3967 487.138 71.4291 486.952 71.455C486.791 71.4768 486.628 71.4925 486.466 71.509C486.314 71.5247 486.162 71.5432 486.01 71.5538C485.688 71.5756 485.365 71.5894 485.04 71.5894H477.159C473.81 71.5849 470.575 70.3747 468.051 68.1819C465.527 65.9891 463.884 62.9615 463.424 59.6568H483.251C483.67 63.6501 485.46 67.3769 488.317 70.2085ZM483.25 40.1875H463.424C463.885 36.8835 465.529 33.8567 468.052 31.6645C470.576 29.4724 473.81 28.2626 477.159 28.2581H485.04C485.365 28.2581 485.687 28.2718 486.008 28.2935C486.165 28.3045 486.321 28.3235 486.478 28.3398C486.634 28.3556 486.791 28.3707 486.947 28.3919C487.141 28.4187 487.333 28.4522 487.525 28.4872C487.64 28.5079 487.755 28.5282 487.869 28.5519C488.073 28.5941 488.276 28.6419 488.477 28.6933C488.582 28.7199 488.687 28.7479 488.791 28.7773C488.904 28.8088 489.015 28.8445 489.127 28.8788C485.818 31.7839 483.721 35.8185 483.25 40.1875ZM497.521 29.6389C497.029 29.1486 496.508 28.6875 495.962 28.2581H508.683C512.034 28.2577 515.271 29.4657 517.797 31.6588C520.322 33.8519 521.966 36.8818 522.423 40.1884H502.594C502.173 36.1947 500.381 32.4683 497.521 29.6389V29.6389Z" fill="url(#paint2_linear_2716_18772)"/>
<path d="M572.844 75.5098C569.384 75.5405 565.953 74.8714 562.76 73.5425C559.751 72.3071 557.021 70.4831 554.731 68.1782C552.442 65.8733 550.639 63.1343 549.431 60.1234C548.151 56.9774 547.504 53.6113 547.527 50.2168V50.0763C547.502 46.6927 548.149 43.3379 549.431 40.2049C550.66 37.1995 552.455 34.4567 554.72 32.1251C557.026 29.7737 559.785 27.9098 562.831 26.6451C566.138 25.2795 569.689 24.5982 573.268 24.6427C575.385 24.626 577.499 24.8143 579.58 25.2049C581.356 25.5419 583.093 26.0598 584.763 26.7505C586.28 27.388 587.723 28.1891 589.065 29.1394C590.371 30.0675 591.598 31.1014 592.732 32.2305L585.822 40.1697C584.055 38.549 582.074 37.1778 579.933 36.0947C577.833 35.0888 575.527 34.5837 573.197 34.6194C571.218 34.6012 569.257 35.0085 567.45 35.8136C565.719 36.5867 564.17 37.7116 562.901 39.1162C561.617 40.5455 560.612 42.2015 559.939 43.9988C559.226 45.8969 558.867 47.9089 558.881 49.9357V50.0763C558.869 52.1141 559.227 54.1376 559.939 56.0483C560.603 57.8528 561.595 59.52 562.866 60.9661C564.158 62.4219 565.749 63.5836 567.532 64.3716C569.315 65.1598 571.247 65.556 573.197 65.5331C575.675 65.6098 578.133 65.0791 580.356 63.9876C582.471 62.8397 584.426 61.4224 586.174 59.772L593.085 66.7272C591.863 68.0423 590.543 69.2635 589.136 70.3805C587.752 71.4703 586.25 72.4012 584.657 73.1562C582.96 73.9539 581.173 74.5436 579.333 74.9123C577.196 75.3301 575.022 75.5302 572.844 75.5098Z" fill="white"/>
<path d="M599.996 25.4844H610.856V44.9459H630.885V25.4844H641.746V74.6647H630.885V54.9219H610.856V74.6647H599.996V25.4844Z" fill="white"/>
<path d="M652.324 25.4844H663.185V74.6647H652.324V25.4844Z" fill="white"/>
<path d="M673.765 25.4853H693.933C696.629 25.4433 699.312 25.859 701.867 26.7146C704.06 27.4559 706.077 28.6398 707.792 30.1922C709.413 31.6928 710.689 33.5269 711.53 35.5675C712.421 37.7651 712.864 40.1175 712.834 42.4877V42.6282C712.889 45.2184 712.359 47.7879 711.283 50.1458C710.289 52.2477 708.83 54.0973 707.015 55.5555C705.135 57.0453 702.977 58.1548 700.669 58.8223C698.139 59.5643 695.512 59.9314 692.876 59.9117H684.623V74.6657H673.765V25.4853ZM693.229 50.2863C695.954 50.2863 698.071 49.5721 699.575 48.1433C700.307 47.4679 700.886 46.6461 701.273 45.7319C701.662 44.8176 701.854 43.8318 701.833 42.8391V42.6985C701.901 41.6539 701.722 40.608 701.311 39.6442C700.901 38.6805 700.271 37.8257 699.469 37.1482C697.603 35.7925 695.323 35.1222 693.016 35.2512H684.623V50.2863H693.229Z" fill="white"/>
<path d="M724.297 33.5768C723.273 34.584 722.026 35.0876 720.557 35.0876C719.088 35.0876 717.833 34.584 716.794 33.5768C715.77 32.5696 715.258 31.307 715.258 29.7889C715.258 28.2854 715.77 27.0301 716.794 26.0229C717.833 25.0011 719.088 24.4902 720.557 24.4902C722.026 24.4902 723.273 25.0011 724.297 26.0229C725.336 27.0301 725.856 28.2854 725.856 29.7889C725.856 31.307 725.336 32.5696 724.297 33.5768ZM717.396 33.0513C718.227 33.8979 719.281 34.3212 720.557 34.3212C721.833 34.3212 722.88 33.8979 723.696 33.0513C724.527 32.1901 724.943 31.1026 724.943 29.7889C724.943 28.4898 724.527 27.4096 723.696 26.5484C722.865 25.6872 721.819 25.2566 720.557 25.2566C719.295 25.2566 718.249 25.6872 717.418 26.5484C716.587 27.4096 716.171 28.4898 716.171 29.7889C716.171 31.1026 716.579 32.1901 717.396 33.0513ZM718.486 32.5258V26.9206H721.114C721.633 26.9206 722.063 27.0739 722.405 27.3804C722.746 27.6723 722.917 28.0446 722.917 28.4971C722.917 29.2123 722.561 29.6575 721.848 29.8327V29.8546C722.383 30.0005 722.679 30.3801 722.739 30.9931C722.754 31.1245 722.768 31.2705 722.783 31.431C722.798 31.5916 722.806 31.723 722.806 31.8252C722.82 31.9273 722.828 32.0295 722.828 32.1317C722.843 32.2339 722.857 32.3141 722.872 32.3725C722.902 32.4163 722.939 32.4455 722.984 32.4601V32.5258H721.893C721.759 32.4674 721.678 32.0368 721.648 31.234C721.618 30.5917 721.255 30.2706 720.557 30.2706H719.622V32.5258H718.486ZM719.622 27.8402V29.4167H720.869C721.492 29.4167 721.804 29.1539 721.804 28.6284C721.804 28.103 721.492 27.8402 720.869 27.8402H719.622Z" fill="white"/>
<defs>
<linearGradient id="paint0_linear_2716_18772" x1="568.401" y1="32.0833" x2="606.124" y2="-90.1239" gradientUnits="userSpaceOnUse">
<stop stop-color="#15103A"/>
<stop offset="1" stop-color="#5147DD"/>
</linearGradient>
<linearGradient id="paint1_linear_2716_18772" x1="696.041" y1="68.3333" x2="760.132" y2="26.6303" gradientUnits="userSpaceOnUse">
<stop stop-color="#16113B"/>
<stop offset="1" stop-color="#5147DD"/>
</linearGradient>
<linearGradient id="paint2_linear_2716_18772" x1="485.841" y1="56.9807" x2="518.772" y2="23.9254" gradientUnits="userSpaceOnUse">
<stop stop-color="#5147DD"/>
<stop offset="1" stop-color="#DD80DD"/>
</linearGradient>
</defs>
</svg>
